# xmcd
#
# Track frame offsets: 
#        187
#        14687
#        33092
#        45382
#
# Disc length: 751 seconds
#
# Revision: 1
# Processed by: cddbd v1.5.2PL0 Copyright (c) Steve Scherf et al.
# Submitted via: ExactAudioCopyFreeDBPlugin 1.0
#
DISCID=2502ed04
DTITLE=The Moonglows - Vintage Gold
DYEAR=1900
DGENRE=R&B
TTITLE0=Sincerely
TTITLE1=Ten Commandments Of Love
TTITLE2=In My Diary
TTITLE3=See Saw
EXTD=
EXTT0=
EXTT1=
EXTT2=
EXTT3=
PLAYORDER=
